<?xml version="1.0" encoding="UTF-8" standalone="no"?>
<!-- Uploaded to: SVG Repo, www.svgrepo.com, Transformed by: SVG Repo Mixer Tools -->

<svg
   width="800px"
   height="800px"
   viewBox="0 0 24 24"
   fill="none"
   stroke="#000000"
   version="1.1"
   id="svg1"
   sodipodi:docname="my-logo.svg"
   inkscape:version="1.4 (e7c3feb100, 2024-10-09)"
   xmlns:inkscape="http://www.inkscape.org/namespaces/inkscape"
   xmlns:sodipodi="http://sodipodi.sourceforge.net/DTD/sodipodi-0.dtd"
   xmlns="http://www.w3.org/2000/svg"
   xmlns:svg="http://www.w3.org/2000/svg">
  <sodipodi:namedview
     id="namedview1"
     pagecolor="#ffffff"
     bordercolor="#000000"
     borderopacity="0.25"
     inkscape:showpageshadow="2"
     inkscape:pageopacity="0.0"
     inkscape:pagecheckerboard="0"
     inkscape:deskcolor="#d1d1d1"
     inkscape:zoom="0.88875"
     inkscape:cx="400"
     inkscape:cy="400"
     inkscape:window-width="1745"
     inkscape:window-height="914"
     inkscape:window-x="0"
     inkscape:window-y="0"
     inkscape:window-maximized="1"
     inkscape:current-layer="SVGRepo_iconCarrier" />
  <defs
     id="defs1">
    <rect
       x="237.4121"
       y="308.29817"
       width="324.05063"
       height="145.14768"
       id="rect2" />
    <rect
       x="234.03657"
       y="298.17159"
       width="339.80309"
       height="154.14909"
       id="rect3" />
    <rect
       x="246.4135"
       y="301.54712"
       width="306.04782"
       height="165.40084"
       id="rect1" />
    <symbol
       id="sjjb-education.svg:symbol33"
       viewBox="0 0 576.44501 577.45154">
      <title
         id="title30">College (vocational)</title>
      <path
         d="M 64.571,0.06355556 C 23.236,0.06355556 0,21.434556 0,65.099556 V 515.22256 c 0,40.844 20.895,62.229 62.192,62.229 h 452.024 c 41.307,0 62.229,-20.315 62.229,-62.229 V 65.099556 c 0,-42.601 -20.922,-65.03600044 -63.521,-65.03600044 -0.004,0 -448.495,-0.143 -448.353,0 z"
         id="path31" />
      <path
         opacity="0.75"
         fill="#ffffff"
         d="m 287.171,44.795556 a 15.394957,15.394957 0 0 0 -14,9.59375 l -39.59375,93.718754 h 33.4375 l 21.9375,-51.937504 22,51.937504 h 33.4375 L 304.671,54.389306 a 15.394957,15.394957 0 0 0 -15.8125,-9.5 15.394957,15.394957 0 0 0 -1.6875,-0.09375 z m -160.90625,377.312504 -32.65625,79 a 15.394957,15.394957 0 1 0 28.4375,11.75 l 37.5,-90.75 z m 290.03125,0 6.09375,9.875 33.375,80.875 a 15.399125,15.399125 0 1 0 28.46875,-11.75 l -32.65625,-79 z"
         id="path32" />
      <path
         fill="#ffffff"
         d="M 71.559672,137.85415 A 10.263305,10.263305 0 0 0 61.297953,148.11587 V 422.1022 a 10.263305,10.263305 0 0 0 10.261719,10.26367 H 509.30772 A 10.263305,10.263305 0 0 0 519.56944,422.1022 V 148.11587 a 10.263305,10.263305 0 0 0 -10.26172,-10.26172 z m 95.351558,80.32618 c 1.69835,0.0412 3.34687,0.99781 4.22657,2.45117 l 15.65234,25.88281 0.24414,0.36719 c 4.78146,6.64604 7.56889,13.56104 11.30274,17.64258 89.82523,-0.87913 179.62769,-1.76933 269.45507,-2.63477 0.0837,-0.005 0.16259,0.004 0.2461,0 16.92664,-0.82745 30.13203,14.31093 29.74219,30.44727 h 0.0293 c 0.005,0.0932 -0.004,0.18237 0,0.27539 -0.002,0.0718 0.003,0.14309 0,0.21484 h -0.0293 c 0.5794,16.08438 -12.60875,30.50193 -29.03907,30.50781 -0.0715,0.002 -0.14143,0.002 -0.21289,0 -65.13349,-2.59913 -130.20404,-6.36399 -195.23828,-9.40429 -0.0102,-3.8e-4 -0.0211,4e-4 -0.0312,0 -25.28242,-0.95992 -50.58503,-3.00229 -75.35156,-3.33789 -10.12741,12.78879 -19.26602,27.15885 -29.37305,40.89257 -1.13787,1.56225 -3.22065,2.37219 -5.11523,1.99024 L 89.721781,338.74087 c -2.310209,-0.46827 -4.121032,-2.72725 -4.074219,-5.08398 l 0.367188,-21.01172 c 0.04789,-2.64171 2.473136,-5.00836 5.115234,-4.99219 17.206486,0.025 34.424546,1.04048 50.939456,0.55078 4.28276,-6.4769 8.32975,-13.39795 11.70117,-20.24804 -3.0979,-6.98411 -6.98289,-14.08828 -11.02734,-20.67383 -16.99259,-1.05278 -34.57739,-0.65011 -52.195317,-1.22656 -2.641712,-0.0793 -4.97847,-2.53333 -4.929687,-5.17579 l 0.367187,-23.0039 c 0.04312,-2.3123 1.862707,-4.46877 4.134766,-4.90039 l 75.687501,-14.70313 c 0.36278,-0.0706 0.73406,-0.10158 1.10351,-0.0918 z m 302.25977,64.8457 c -0.22207,-0.002 -0.44801,0.0109 -0.67383,0.0293 -0.13226,0.0154 -0.26537,0.0263 -0.39844,0.0312 -6.21112,0.0169 -11.03827,7.0329 -8.91406,12.86523 0.0345,0.11122 0.065,0.22263 0.0918,0.33594 2.00971,6.95647 13.27749,8.55081 17.12305,2.38867 0.0946,-0.1481 0.19722,-0.29022 0.30664,-0.42774 4.31272,-5.51819 -0.65101,-15.16258 -7.53516,-15.22265 z"
         id="path33" />
    </symbol>
  </defs>
  <g
     id="SVGRepo_iconCarrier">
    <path
       d="m 20.236287,5.7974684 h -0.9999 c -2.732,0 -5.113,-1.06515 -7.0002,-3 -1.8871,1.93478 -4.2679101,3 -6.9998101,3 h -1 c 0,0 -9e-5,2 -9e-5,3.16611 0,5.6934896 3.3994,11.3551266 8.0000001,12.7115266 4.6006,-1.3564 8,-7.018037 8,-12.7115266 z"
       stroke="#000000"
       stroke-width="2"
       stroke-linecap="round"
       stroke-linejoin="round"
       id="path1"
       style="fill:#f9f9f9;fill-opacity:1"
       sodipodi:nodetypes="cscscscsc"
       inkscape:label="path1"
       inkscape:transform-center-x="0.20253165"
       inkscape:transform-center-y="-1.0801883" />
    <path
       d="m 7.5174059,10.291597 c -0.2628841,0.246937 -0.2628841,0.57619 0,0.823129 l 2.4459687,2.277321 c 0.05143,0.04573 0.1028684,0.07317 0.1543024,0.07317 0.09145,0 0.171447,-0.08231 0.228595,-0.237791 0.09145,-0.237794 0.05144,-0.484732 -0.09715,-0.621921 L 8.2089111,10.703166 10.249124,8.8099712 c 0.148587,-0.1371884 0.188593,-0.3841265 0.09715,-0.6219204 -0.05715,-0.1554809 -0.137158,-0.2377939 -0.228595,-0.2377939 -0.05144,0 -0.102868,0.027439 -0.1543024,0.073168 z M 13.838066,7.9045243 c 0.08572,-0.2377938 0.04571,-0.4847327 -0.102869,-0.6219208 -0.05144,-0.054875 -0.102869,-0.073166 -0.154302,-0.073166 -0.09715,0 -0.182876,0.082313 -0.240025,0.2377907 L 11.014914,13.86763 c -0.08572,0.237794 -0.04571,0.475585 0.102869,0.612773 0.05144,0.05487 0.108581,0.08231 0.160016,0.08231 0.09144,0 0.171446,-0.08231 0.228594,-0.237793 z m 3.49751,2.3870727 -2.445969,-2.2681772 c -0.05144,-0.045729 -0.10287,-0.073168 -0.154302,-0.073168 -0.09145,0 -0.171446,0.082313 -0.228594,0.237794 -0.09145,0.2377939 -0.05144,0.484732 0.09716,0.6219204 l 2.040213,1.8931938 -2.04021,1.90234 c -0.148588,0.137188 -0.188592,0.384127 -0.09716,0.62192 0.05715,0.155478 0.137156,0.237791 0.228593,0.237791 0.05144,0 0.102869,-0.02744 0.154302,-0.07317 l 2.445969,-2.277321 c 0.262887,-0.246938 0.262887,-0.57619 0,-0.823129 z"
       id="text1"
       style="font-size:29.3333px;font-family:'Sierra Briston';-inkscape-font-specification:'Sierra Briston, Normal';white-space:pre;fill:#000000;stroke-width:0.203333;paint-order:stroke fill markers"
       aria-label="&lt;/&gt;" />
  </g>
</svg>
